# xmcd
#
# Track frame offsets:
#	150
#	18101
#	35809
#	56623
#	78669
#	95090
#	112524
#	134638
#	165975
#
# Disc length: 4577 seconds
# Revision: 3
# Processed by: cddbd v1.5.2PL0 Copyright (c) Steve Scherf et al.
# Submitted via: dBpowerAMP V12.0
#
DISCID=6c11df09
DTITLE=Taylor Swift - Speak Now (Deluxe Edition)
DYEAR=2010
DGENRE=Country
TTITLE0=Ours
TTITLE1=If This Were A Movie
TTITLE2=Superman
TTITLE3=Back To December (Acoustic)
TTITLE4=Haunted (Acoustic)
TTITLE5=Mine (US Version)
TTITLE6=Back To December (US Version)
TTITLE7=The Story Of Us (US Version)
TTITLE8=DATA
EXTD=
EXTT0=
EXTT1=
EXTT2=
EXTT3=
EXTT4=
EXTT5=
EXTT6=
EXTT7=
EXTT8=
PLAYORDER=
